<mxfile host="app.diagrams.net" modified="2022-07-07T08:03:17.055Z" agent="5.0 (Windows NT 10.0; Win64; x64) AppleWebKit/537.36 (KHTML, like Gecko) Chrome/103.0.0.0 Safari/537.36" etag="aIv5E9uXRtcfHS7PJr4X" version="20.0.4" type="github">
  <diagram id="C5RBs43oDa-KdzZeNtuy" name="Page-1">
    <mxGraphModel dx="700" dy="752" grid="1" gridSize="10" guides="1" tooltips="1" connect="1" arrows="1" fold="1" page="1" pageScale="1" pageWidth="827" pageHeight="1169" math="0" shadow="0">
      <root>
        <mxCell id="WIyWlLk6GJQsqaUBKTNV-0" />
        <mxCell id="WIyWlLk6GJQsqaUBKTNV-1" parent="WIyWlLk6GJQsqaUBKTNV-0" />
        <mxCell id="2fIj8lZ6WPOgDqfGMR6m-3" value="" style="edgeStyle=orthogonalEdgeStyle;rounded=0;orthogonalLoop=1;jettySize=auto;html=1;" edge="1" parent="WIyWlLk6GJQsqaUBKTNV-1" source="WIyWlLk6GJQsqaUBKTNV-7" target="2fIj8lZ6WPOgDqfGMR6m-2">
          <mxGeometry relative="1" as="geometry">
            <Array as="points">
              <mxPoint x="290" y="130" />
              <mxPoint x="290" y="130" />
            </Array>
          </mxGeometry>
        </mxCell>
        <mxCell id="WIyWlLk6GJQsqaUBKTNV-7" value="证书内容" style="rounded=1;whiteSpace=wrap;html=1;fontSize=12;glass=0;strokeWidth=1;shadow=0;" parent="WIyWlLk6GJQsqaUBKTNV-1" vertex="1">
          <mxGeometry x="160" y="110" width="100" height="40" as="geometry" />
        </mxCell>
        <mxCell id="2fIj8lZ6WPOgDqfGMR6m-11" style="edgeStyle=orthogonalEdgeStyle;rounded=0;orthogonalLoop=1;jettySize=auto;html=1;exitX=1;exitY=0.25;exitDx=0;exitDy=0;entryX=0.558;entryY=0.983;entryDx=0;entryDy=0;entryPerimeter=0;" edge="1" parent="WIyWlLk6GJQsqaUBKTNV-1" source="WIyWlLk6GJQsqaUBKTNV-12" target="2fIj8lZ6WPOgDqfGMR6m-8">
          <mxGeometry relative="1" as="geometry" />
        </mxCell>
        <mxCell id="WIyWlLk6GJQsqaUBKTNV-12" value="指纹算法" style="rounded=1;whiteSpace=wrap;html=1;fontSize=12;glass=0;strokeWidth=1;shadow=0;" parent="WIyWlLk6GJQsqaUBKTNV-1" vertex="1">
          <mxGeometry x="380" y="190" width="90" height="40" as="geometry" />
        </mxCell>
        <mxCell id="2fIj8lZ6WPOgDqfGMR6m-9" style="edgeStyle=orthogonalEdgeStyle;rounded=0;orthogonalLoop=1;jettySize=auto;html=1;exitX=1;exitY=0.5;exitDx=0;exitDy=0;" edge="1" parent="WIyWlLk6GJQsqaUBKTNV-1" source="2fIj8lZ6WPOgDqfGMR6m-2" target="2fIj8lZ6WPOgDqfGMR6m-8">
          <mxGeometry relative="1" as="geometry" />
        </mxCell>
        <mxCell id="2fIj8lZ6WPOgDqfGMR6m-2" value="指纹" style="whiteSpace=wrap;html=1;rounded=1;glass=0;strokeWidth=1;shadow=0;" vertex="1" parent="WIyWlLk6GJQsqaUBKTNV-1">
          <mxGeometry x="370" y="110" width="100" height="50" as="geometry" />
        </mxCell>
        <mxCell id="2fIj8lZ6WPOgDqfGMR6m-7" value="指纹算法" style="text;html=1;strokeColor=none;fillColor=none;align=center;verticalAlign=middle;whiteSpace=wrap;rounded=0;" vertex="1" parent="WIyWlLk6GJQsqaUBKTNV-1">
          <mxGeometry x="270" y="100" width="60" height="30" as="geometry" />
        </mxCell>
        <mxCell id="2fIj8lZ6WPOgDqfGMR6m-8" value="签名" style="rounded=1;whiteSpace=wrap;html=1;" vertex="1" parent="WIyWlLk6GJQsqaUBKTNV-1">
          <mxGeometry x="540" y="140" width="120" height="60" as="geometry" />
        </mxCell>
        <mxCell id="2fIj8lZ6WPOgDqfGMR6m-14" value="CA机构自己的私钥" style="text;html=1;strokeColor=none;fillColor=none;align=center;verticalAlign=middle;whiteSpace=wrap;rounded=0;" vertex="1" parent="WIyWlLk6GJQsqaUBKTNV-1">
          <mxGeometry x="520" y="230" width="80" height="30" as="geometry" />
        </mxCell>
        <mxCell id="2fIj8lZ6WPOgDqfGMR6m-22" value="" style="edgeStyle=orthogonalEdgeStyle;rounded=0;orthogonalLoop=1;jettySize=auto;html=1;" edge="1" parent="WIyWlLk6GJQsqaUBKTNV-1" source="2fIj8lZ6WPOgDqfGMR6m-15" target="2fIj8lZ6WPOgDqfGMR6m-21">
          <mxGeometry relative="1" as="geometry" />
        </mxCell>
        <mxCell id="2fIj8lZ6WPOgDqfGMR6m-15" value="浏览器" style="rounded=1;whiteSpace=wrap;html=1;" vertex="1" parent="WIyWlLk6GJQsqaUBKTNV-1">
          <mxGeometry x="170" y="310" width="120" height="60" as="geometry" />
        </mxCell>
        <mxCell id="2fIj8lZ6WPOgDqfGMR6m-24" value="" style="edgeStyle=orthogonalEdgeStyle;rounded=0;orthogonalLoop=1;jettySize=auto;html=1;" edge="1" parent="WIyWlLk6GJQsqaUBKTNV-1" source="2fIj8lZ6WPOgDqfGMR6m-21" target="2fIj8lZ6WPOgDqfGMR6m-23">
          <mxGeometry relative="1" as="geometry" />
        </mxCell>
        <mxCell id="2fIj8lZ6WPOgDqfGMR6m-26" value="" style="edgeStyle=orthogonalEdgeStyle;rounded=0;orthogonalLoop=1;jettySize=auto;html=1;" edge="1" parent="WIyWlLk6GJQsqaUBKTNV-1" source="2fIj8lZ6WPOgDqfGMR6m-21" target="2fIj8lZ6WPOgDqfGMR6m-25">
          <mxGeometry relative="1" as="geometry" />
        </mxCell>
        <mxCell id="2fIj8lZ6WPOgDqfGMR6m-21" value="找到证书机构的根证书" style="rhombus;whiteSpace=wrap;html=1;rounded=1;" vertex="1" parent="WIyWlLk6GJQsqaUBKTNV-1">
          <mxGeometry x="375" y="295" width="100" height="90" as="geometry" />
        </mxCell>
        <mxCell id="2fIj8lZ6WPOgDqfGMR6m-23" value="不受信任，结束" style="whiteSpace=wrap;html=1;rounded=1;" vertex="1" parent="WIyWlLk6GJQsqaUBKTNV-1">
          <mxGeometry x="545" y="310" width="120" height="60" as="geometry" />
        </mxCell>
        <mxCell id="2fIj8lZ6WPOgDqfGMR6m-28" value="" style="edgeStyle=orthogonalEdgeStyle;rounded=0;orthogonalLoop=1;jettySize=auto;html=1;" edge="1" parent="WIyWlLk6GJQsqaUBKTNV-1" source="2fIj8lZ6WPOgDqfGMR6m-25" target="2fIj8lZ6WPOgDqfGMR6m-27">
          <mxGeometry relative="1" as="geometry" />
        </mxCell>
        <mxCell id="2fIj8lZ6WPOgDqfGMR6m-25" value="获取根公钥" style="whiteSpace=wrap;html=1;rounded=1;" vertex="1" parent="WIyWlLk6GJQsqaUBKTNV-1">
          <mxGeometry x="365" y="450" width="120" height="60" as="geometry" />
        </mxCell>
        <mxCell id="2fIj8lZ6WPOgDqfGMR6m-30" value="" style="edgeStyle=orthogonalEdgeStyle;rounded=0;orthogonalLoop=1;jettySize=auto;html=1;" edge="1" parent="WIyWlLk6GJQsqaUBKTNV-1" source="2fIj8lZ6WPOgDqfGMR6m-27" target="2fIj8lZ6WPOgDqfGMR6m-29">
          <mxGeometry relative="1" as="geometry" />
        </mxCell>
        <mxCell id="2fIj8lZ6WPOgDqfGMR6m-27" value="解密数字签名" style="whiteSpace=wrap;html=1;rounded=1;" vertex="1" parent="WIyWlLk6GJQsqaUBKTNV-1">
          <mxGeometry x="365" y="590" width="120" height="60" as="geometry" />
        </mxCell>
        <mxCell id="2fIj8lZ6WPOgDqfGMR6m-32" value="" style="edgeStyle=orthogonalEdgeStyle;rounded=0;orthogonalLoop=1;jettySize=auto;html=1;" edge="1" parent="WIyWlLk6GJQsqaUBKTNV-1" source="2fIj8lZ6WPOgDqfGMR6m-29" target="2fIj8lZ6WPOgDqfGMR6m-31">
          <mxGeometry relative="1" as="geometry" />
        </mxCell>
        <mxCell id="2fIj8lZ6WPOgDqfGMR6m-29" value="得到指纹与指纹算法" style="whiteSpace=wrap;html=1;rounded=1;" vertex="1" parent="WIyWlLk6GJQsqaUBKTNV-1">
          <mxGeometry x="365" y="730" width="120" height="60" as="geometry" />
        </mxCell>
        <mxCell id="2fIj8lZ6WPOgDqfGMR6m-34" value="" style="edgeStyle=orthogonalEdgeStyle;rounded=0;orthogonalLoop=1;jettySize=auto;html=1;" edge="1" parent="WIyWlLk6GJQsqaUBKTNV-1" source="2fIj8lZ6WPOgDqfGMR6m-31" target="2fIj8lZ6WPOgDqfGMR6m-33">
          <mxGeometry relative="1" as="geometry" />
        </mxCell>
        <mxCell id="2fIj8lZ6WPOgDqfGMR6m-31" value="使用指纹算法对证书进行hash，比对指纹" style="whiteSpace=wrap;html=1;rounded=1;" vertex="1" parent="WIyWlLk6GJQsqaUBKTNV-1">
          <mxGeometry x="540" y="640" width="120" height="60" as="geometry" />
        </mxCell>
        <mxCell id="2fIj8lZ6WPOgDqfGMR6m-35" style="edgeStyle=orthogonalEdgeStyle;rounded=0;orthogonalLoop=1;jettySize=auto;html=1;exitX=0.5;exitY=0;exitDx=0;exitDy=0;entryX=0.425;entryY=1.017;entryDx=0;entryDy=0;entryPerimeter=0;" edge="1" parent="WIyWlLk6GJQsqaUBKTNV-1" source="2fIj8lZ6WPOgDqfGMR6m-33" target="2fIj8lZ6WPOgDqfGMR6m-23">
          <mxGeometry relative="1" as="geometry" />
        </mxCell>
        <mxCell id="2fIj8lZ6WPOgDqfGMR6m-37" value="" style="edgeStyle=orthogonalEdgeStyle;rounded=0;orthogonalLoop=1;jettySize=auto;html=1;" edge="1" parent="WIyWlLk6GJQsqaUBKTNV-1" source="2fIj8lZ6WPOgDqfGMR6m-33">
          <mxGeometry relative="1" as="geometry">
            <mxPoint x="700" y="530" as="targetPoint" />
          </mxGeometry>
        </mxCell>
        <mxCell id="2fIj8lZ6WPOgDqfGMR6m-33" value="是否相等" style="rhombus;whiteSpace=wrap;html=1;rounded=1;" vertex="1" parent="WIyWlLk6GJQsqaUBKTNV-1">
          <mxGeometry x="560" y="495" width="80" height="70" as="geometry" />
        </mxCell>
        <mxCell id="2fIj8lZ6WPOgDqfGMR6m-40" style="edgeStyle=orthogonalEdgeStyle;rounded=0;orthogonalLoop=1;jettySize=auto;html=1;entryX=0.5;entryY=0;entryDx=0;entryDy=0;" edge="1" parent="WIyWlLk6GJQsqaUBKTNV-1" source="2fIj8lZ6WPOgDqfGMR6m-38" target="2fIj8lZ6WPOgDqfGMR6m-23">
          <mxGeometry relative="1" as="geometry">
            <Array as="points">
              <mxPoint x="760" y="428" />
              <mxPoint x="685" y="428" />
              <mxPoint x="685" y="290" />
              <mxPoint x="605" y="290" />
            </Array>
          </mxGeometry>
        </mxCell>
        <mxCell id="2fIj8lZ6WPOgDqfGMR6m-38" value="检查证书上使用者的URL与请求的是否相等" style="rhombus;whiteSpace=wrap;html=1;" vertex="1" parent="WIyWlLk6GJQsqaUBKTNV-1">
          <mxGeometry x="700" y="485" width="110" height="90" as="geometry" />
        </mxCell>
      </root>
    </mxGraphModel>
  </diagram>
</mxfile>
